:SAMPLES-PER-SECOND 30
:FRAME-RANGE 1-1390
:FULLY-SPECIFIED
:DEGREES
131
root  47.3274 38.0347 -33.0304 -178.244 -68.1185 175.088
RightUpLeg  -84.4247 -15.7895 55.0147
RightLeg  125.45 1.84655 -1.77763
RightFoot  -5.94908 -0.270349 4.8774
RightToes  6.35937e-011 1.2921e-014 -6.02303e-014
Spine  20.5861 -2.42145 -0.738503
Spine1  0.029159 1.19851 -9.9644
HEad  15.8293 11.212 -2.07501
LeftShoulder1  3.47373 -9.57526 -20.8226
LeftArm  20.1208 -26.0057 -57.7885
LeftForeArm  42.9279 4.01639 -16.6922
LeftHand  -0.0295813 4.73126 -2.17203
RightShoulder  2.40021 7.43629 15.7102
RightArm  -0.449969 40.0987 78.7556
RightForeArm  83.6409 -0.384592 9.08985
RightHand  0.361104 -13.3592 -6.08519
LeftUpLeg  -14.8529 -5.44195 -9.47706
LeftLeg  32.1999 12.5614 8.7584
LeftFoot  -14.209 0.23662 6.03234
LeftToes  4.52251e-011 4.07896e-011 -5.42348e-012
132
root  47.2982 37.6521 -33.0818 -178.955 -67.795 175.711
RightUpLeg  -83.4302 -16.0549 56.1186
RightLeg  126.438 2.26068 -2.22381
RightFoot  -4.85477 -0.324602 5.14046
RightToes  6.35937e-011 1.2921e-014 -6.02303e-014
Spine  20.6767 -1.83831 0.117025
Spine1  -0.0760608 1.63044 -9.58431
HEad  14.7599 10.9048 -2.71061
LeftShoulder1  3.38364 -9.37891 -20.5097
LeftArm  21.9677 -25.1537 -59.0714
LeftForeArm  41.1644 3.74448 -16.9263
LeftHand  -0.0287405 4.68226 -2.37658
RightShoulder  2.39657 7.2003 16.2197
RightArm  -1.67666 39.5463 78.3085
RightForeArm  83.4979 -0.183208 8.63603
RightHand  0.339021 -13.4426 -5.72337
LeftUpLeg  -16.4305 -5.42544 -9.29177
LeftLeg  35.9589 12.4243 9.88634
LeftFoot  -16.0891 0.322537 5.44241
LeftToes  4.52251e-011 4.07896e-011 -5.42348e-012
133
root  47.2225 37.2663 -33.1895 -179.305 -67.1102 175.646
RightUpLeg  -82.1527 -16.3614 56.6854
RightLeg  127.171 2.16026 -2.03352
RightFoot  -3.53008 -0.35433 4.8338
RightToes  6.35937e-011 1.2921e-014 -6.02303e-014
Spine  20.706 -1.31215 0.294296
Spine1  -0.170639 1.88373 -9.17794
HEad  14.1745 11.4552 -3.07877
LeftShoulder1  3.28502 -9.12825 -20.2366
LeftArm  24.2367 -24.1439 -59.7665
LeftForeArm  38.57 3.30066 -17.221
LeftHand  -0.028835 4.63548 -2.35911
RightShoulder  2.42125 7.15263 16.5912
RightArm  -1.63047 39.6238 79.2565
RightForeArm  85.2353 -1.16473 8.26799
RightHand  0.350579 -13.5017 -5.84522
LeftUpLeg  -17.4801 -4.45276 -9.31013
LeftLeg  39.3327 11.8819 10.6338
LeftFoot  -17.9118 0.403036 5.14181
LeftToes  4.52251e-011 4.07896e-011 -5.42348e-012
134
root  47.0169 36.8824 -33.2569 -178.294 -66.8625 174.117
RightUpLeg  -81.2217 -16.6214 56.7154
RightLeg  127.951 2.22304 -2.04289
RightFoot  -4.09117 -0.227211 3.14512
RightToes  6.35937e-011 1.2921e-014 -6.02303e-014
Spine  20.0919 -1.09589 0.0125884
Spine1  0.010522 1.9219 -8.83774
HEad  14.0865 11.974 -3.14569
LeftShoulder1  3.24576 -8.98483 -20.2251
LeftArm  25.1536 -23.5334 -59.8542
LeftForeArm  37.2052 3.04655 -17.3615
LeftHand  -0.0302091 4.69387 -2.39571
RightShoulder  2.43054 7.186 16.6078
RightArm  -1.56127 39.4315 79.9248
RightForeArm  86.4686 -1.36258 8.13497
RightHand  0.385281 -13.5151 -6.31243
LeftUpLeg  -18.0804 -4.39724 -10.1782
LeftLeg  42.2287 11.778 11.6182
LeftFoot  -19.4957 0.448777 4.6492
LeftToes  4.52251e-011 4.07896e-011 -5.42348e-012
135
root  46.7619 36.6177 -33.2874 -177.299 -66.9479 172.552
RightUpLeg  -81.2595 -16.6523 57.3121
RightLeg  128.105 3.48701 -3.52626
RightFoot  -4.46121 0.0130733 -0.72099
RightToes  6.35937e-011 1.2921e-014 -6.02303e-014
Spine  19.6298 -1.04315 -0.282403
Spine1  -0.196508 1.86761 -8.23069
HEad  14.3392 12.2222 -3.34269
LeftShoulder1  3.17213 -8.66373 -20.3259
LeftArm  23.6735 -23.4386 -60.0173
LeftForeArm  39.066 3.29633 -17.2011
LeftHand  -0.0362054 5.03235 -2.37849
RightShoulder  2.44906 7.02198 17.2035
RightArm  -1.54193 39.0083 80.082
RightForeArm  87.7629 -1.12383 8.18867
RightHand  0.414124 -13.6567 -6.6041
LeftUpLeg  -18.0268 -4.66769 -11.1771
LeftLeg  44.0467 11.8104 12.3733
LeftFoot  -20.5439 0.467494 4.27238
LeftToes  4.52251e-011 4.07896e-011 -5.42348e-012
136
root  46.5228 36.5846 -33.3033 -176.841 -66.9739 171.952
RightUpLeg  -80.8681 -16.0332 58.3179
RightLeg  127.261 4.90374 -5.36368
RightFoot  -6.46707 -0.0148679 -0.680802
RightToes  6.35937e-011 1.2921e-014 -6.02303e-014
Spine  18.7707 -0.961125 -0.194888
Spine1  -0.21521 1.98794 -7.61373
HEad  14.4986 12.3359 -3.52661
LeftShoulder1  3.10799 -8.47768 -20.1913
LeftArm  21.4054 -23.4931 -60.0351
LeftForeArm  41.9928 3.77725 -16.9011
LeftHand  -0.0443848 5.44931 -2.22408
RightShoulder  2.42896 6.88401 17.337
RightArm  -2.65234 38.158 80.6528
RightForeArm  88.7129 -0.855707 7.66623
RightHand  0.42509 -13.6615 -6.74827
LeftUpLeg  -17.5833 -3.72623 -11.5438
LeftLeg  44.051 11.313 11.8936
LeftFoot  -21.0259 0.513129 4.56238
LeftToes  4.52251e-011 4.07896e-011 -5.42348e-012
137
root  46.3285 36.85 -33.341 -177.96 -67.1183 173.5
RightUpLeg  -80.8329 -14.8197 60.3754
RightLeg  125.791 5.88906 -6.92155
RightFoot  -8.54274 -0.0654326 0.307789
RightToes  6.35937e-011 1.2921e-014 -6.02303e-014
Spine  17.6552 -1.0709 0.712264
Spine1  -0.356034 1.99957 -7.01684
HEad  15.2826 13.0053 -3.64839
LeftShoulder1  3.04788 -8.28507 -20.1054
LeftArm  21.5641 -23.1576 -59.6248
LeftForeArm  42.6487 3.76441 -16.8749
LeftHand  -0.0470347 5.56312 -2.17631
RightShoulder  2.48998 6.98902 17.7189
RightArm  -2.33218 38.1802 80.4019
RightForeArm  89.2812 -1.63079 7.78744
RightHand  0.452708 -13.6973 -7.09216
LeftUpLeg  -16.898 -1.94992 -10.6788
LeftLeg  42.3809 10.3402 10.35
LeftFoot  -20.4996 0.533385 5.117
LeftToes  4.52251e-011 4.07896e-011 -5.42348e-012
138
root  46.1788 37.3299 -33.3929 179.67 -67.4652 176.303
RightUpLeg  -81.0171 -13.0852 61.8746
RightLeg  124.708 4.90866 -5.91679
RightFoot  -9.36895 -0.116917 3.09625
RightToes  6.35937e-011 1.2921e-014 -6.02303e-014
Spine  16.9829 -1.40294 1.92938
Spine1  -0.637557 1.76583 -6.42201
HEad  16.324 13.8102 -3.68433
LeftShoulder1  3.0418 -8.27225 -20.0804
LeftArm  21.7307 -22.8358 -59.233
LeftForeArm  42.8535 3.77812 -16.8602
LeftHand  -0.047947 5.56646 -2.0452
RightShoulder  2.51085 7.05569 17.7694
RightArm  -2.15273 37.8087 80.5898
RightForeArm  90.1884 -1.52642 7.90054
RightHand  0.459753 -13.9214 -7.01496
LeftUpLeg  -15.6937 -2.12317 -9.41426
LeftLeg  39.9163 10.4973 9.6649
LeftFoot  -18.7242 0.418815 4.74421
LeftToes  4.52251e-011 4.07896e-011 -5.42348e-012
139
root  46.1295 37.904 -33.4208 177.505 -67.9456 178.607
RightUpLeg  -81.5514 -12.1691 61.9263
RightLeg  124.218 1.7963 -1.80643
RightFoot  -9.31406 -0.182083 6.70265
RightToes  6.35937e-011 1.2921e-014 -6.02303e-014
Spine  16.832 -1.76976 2.45311
Spine1  -0.815912 1.36637 -5.64376
HEad  16.8253 14.5203 -3.62894
LeftShoulder1  3.12057 -8.53349 -20.1718
LeftArm  20.5895 -22.8563 -59.0965
LeftForeArm  43.7647 4.03554 -16.7173
LeftHand  -0.0478611 5.52396 -1.94255
RightShoulder  2.45696 6.93637 17.5027
RightArm  -0.915058 38.0738 80.3532
RightForeArm  89.016 -0.386755 8.76473
RightHand  0.397205 -13.9769 -6.16255
LeftUpLeg  -14.7903 -3.82992 -8.55679
LeftLeg  38.1652 11.5858 9.98633
LeftFoot  -15.2458 0.194301 3.01307
LeftToes  4.52251e-011 4.07896e-011 -5.42348e-012
140
root  46.1622 38.4083 -33.43 177.379 -68.5161 178.647
RightUpLeg  -82.3038 -11.5892 60.81
RightLeg  124.029 -0.776676 1.71643
RightFoot  -9.90586 -0.183508 9.24448
RightToes  6.35937e-011 1.2921e-014 -6.02303e-014
Spine  17.5525 -2.14539 1.79648
Spine1  -1.57708 0.841451 -4.92788
HEad  17.0838 14.8853 -3.04036
LeftShoulder1  3.21031 -8.86061 -20.2021
LeftArm  18.1584 -22.9222 -58.9787
LeftForeArm  45.3469 4.53774 -16.4202
LeftHand  -0.0479083 5.50974 -1.9393
RightShoulder  2.35736 6.62834 17.217
RightArm  0.805511 37.9573 80.2591
RightForeArm  87.8705 1.85066 9.96321
RightHand  0.323046 -14.0871 -5.14214
LeftUpLeg  -14.6894 -4.64791 -8.63707
LeftLeg  37.3943 12.4685 10.4145
LeftFoot  -10.968 0.059881 1.85039
LeftToes  4.52251e-011 4.07896e-011 -5.42348e-012
141
root  46.302 38.6696 -33.4943 176.979 -68.5035 179.377
RightUpLeg  -82.7303 -10.5816 60.6635
RightLeg  123.505 -1.04716 2.12232
RightFoot  -10.2524 -0.155383 8.98852
RightToes  6.35937e-011 1.2921e-014 -6.02303e-014
Spine  18.5689 -2.32462 1.62708
Spine1  -2.59529 0.53971 -4.70993
HEad  16.2524 15.1632 -2.65749
LeftShoulder1  3.17781 -8.80379 -20.047
LeftArm  15.6825 -22.697 -58.8362
LeftForeArm  47.0886 5.07713 -16.0504
LeftHand  -0.0454079 5.35856 -1.97888
RightShoulder  2.29624 6.49528 16.8864
RightArm  2.23082 37.083 80.406
RightForeArm  86.5274 4.59305 10.7971
RightHand  0.271976 -14.2022 -4.43689
LeftUpLeg  -15.3484 -2.70959 -8.25387
LeftLeg  36.9396 12.2485 10.0847
LeftFoot  -8.93557 -0.0128735 3.1732
LeftToes  4.52251e-011 4.07896e-011 -5.42348e-012
142
root  46.4025 38.5757 -33.5243 178.039 -67.9456 178.898
RightUpLeg  -82.4924 -9.6506 59.8719
RightLeg  123.198 -1.01037 2.09067
RightFoot  -10.4212 -0.155053 10.4408
RightToes  6.35937e-011 1.2921e-014 -6.02303e-014
Spine  19.0704 -2.24988 1.30161
Spine1  -3.37018 0.489752 -4.56519
HEad  14.9158 15.6509 -3.10173
LeftShoulder1  3.12847 -8.62991 -20.0141
LeftArm  14.6388 -22.1728 -58.7217
LeftForeArm  47.3214 5.32011 -15.8933
LeftHand  -0.0447876 5.26689 -1.69322
RightShoulder  2.27883 6.38204 16.9877
RightArm  6.70583 37.1974 79.9396
RightForeArm  82.2554 6.56133 11.5568
RightHand  0.219613 -14.1213 -3.80302
LeftUpLeg  -16.391 -0.523703 -8.31105
LeftLeg  36.0364 6.83392 5.68784
LeftFoot  -10.8897 0.0640163 0.350304
LeftToes  4.52251e-011 4.07896e-011 -5.42348e-012
143
root  46.4102 38.115 -33.4972 179.658 -67.473 177.44
RightUpLeg  -82.6646 -9.56655 59.3848
RightLeg  123.75 0.306048 0.226914
RightFoot  -9.87934 -0.157794 7.09157
RightToes  6.35937e-011 1.2921e-014 -6.02303e-014
Spine  19.4806 -2.32688 1.39516
Spine1  -3.69329 0.456084 -4.95294
HEad  13.5043 15.9871 -4.06268
LeftShoulder1  3.10363 -8.39594 -20.3491
LeftArm  13.4357 -21.8841 -58.5766
LeftForeArm  48 5.54948 -15.7074
LeftHand  -0.0435691 5.17452 -1.59683
RightShoulder  2.26456 6.40654 16.7627
RightArm  7.96489 36.9514 80.2107
RightForeArm  81.4842 7.40845 11.5205
RightHand  0.200434 -14.0522 -3.58123
LeftUpLeg  -16.7962 -0.758634 -9.71248
LeftLeg  35.8026 6.76211 5.58782
LeftFoot  -11.7993 0.0944085 5.84865
LeftToes  4.52251e-011 4.07896e-011 -5.42348e-012
